<svg xmlns="http://www.w3.org/2000/svg" xmlns:xlink="http://www.w3.org/1999/xlink" width="1920" zoomAndPan="magnify" viewBox="0 0 1440 809.999993" height="1080" preserveAspectRatio="xMidYMid meet" version="1.0"><defs><g/><clipPath id="id1"><path d="M 426 260 L 876 260 L 876 562 L 426 562 Z M 426 260 " clip-rule="nonzero"/></clipPath><clipPath id="id2"><path d="M 376.792969 230.855469 L 784.390625 101.9375 L 894.988281 451.613281 L 487.390625 580.53125 Z M 376.792969 230.855469 " clip-rule="nonzero"/></clipPath><clipPath id="id3"><path d="M 376.792969 230.855469 L 784.390625 101.9375 L 894.988281 451.613281 L 487.390625 580.53125 Z M 376.792969 230.855469 " clip-rule="nonzero"/></clipPath><clipPath id="id4"><path d="M 414 183 L 826 183 L 826 363 L 414 363 Z M 414 183 " clip-rule="nonzero"/></clipPath><clipPath id="id5"><path d="M 376.792969 230.855469 L 784.390625 101.9375 L 894.988281 451.613281 L 487.390625 580.53125 Z M 376.792969 230.855469 " clip-rule="nonzero"/></clipPath><clipPath id="id6"><path d="M 376.792969 230.855469 L 784.390625 101.9375 L 894.988281 451.613281 L 487.390625 580.53125 Z M 376.792969 230.855469 " clip-rule="nonzero"/></clipPath><clipPath id="id7"><path d="M 635.832031 507 L 1063.332031 507 L 1063.332031 708 L 635.832031 708 Z M 635.832031 507 " clip-rule="nonzero"/></clipPath><clipPath id="id8"><path d="M 635.832031 408 L 1063.332031 408 L 1063.332031 480 L 635.832031 480 Z M 635.832031 408 " clip-rule="nonzero"/></clipPath><clipPath id="id9"><path d="M 474 368 L 675 368 L 675 516 L 474 516 Z M 474 368 " clip-rule="nonzero"/></clipPath><clipPath id="id10"><path d="M 474.460938 422.480469 L 644.652344 368.652344 L 674.054688 461.613281 L 503.863281 515.441406 Z M 474.460938 422.480469 " clip-rule="nonzero"/></clipPath><clipPath id="id11"><path d="M 513 375 L 630 375 L 630 492 L 513 492 Z M 513 375 " clip-rule="nonzero"/></clipPath><clipPath id="id12"><path d="M 498.988281 395.761719 L 609.113281 360.929688 L 643.941406 471.054688 L 533.820312 505.882812 Z M 498.988281 395.761719 " clip-rule="nonzero"/></clipPath><clipPath id="id13"><path d="M 498.988281 395.761719 L 609.113281 360.929688 L 643.941406 471.054688 L 533.820312 505.882812 Z M 498.988281 395.761719 " clip-rule="nonzero"/></clipPath><clipPath id="id14"><path d="M 528 390 L 615 390 L 615 477 L 528 477 Z M 528 390 " clip-rule="nonzero"/></clipPath><clipPath id="id15"><path d="M 498.988281 395.761719 L 609.113281 360.929688 L 643.941406 471.054688 L 533.820312 505.882812 Z M 498.988281 395.761719 " clip-rule="nonzero"/></clipPath><clipPath id="id16"><path d="M 498.988281 395.761719 L 609.113281 360.929688 L 643.941406 471.054688 L 533.820312 505.882812 Z M 498.988281 395.761719 " clip-rule="nonzero"/></clipPath><clipPath id="id17"><path d="M 671.167969 553.816406 L 849.667969 553.816406 L 849.667969 651.316406 L 671.167969 651.316406 Z M 671.167969 553.816406 " clip-rule="nonzero"/></clipPath><clipPath id="id18"><path d="M 704.988281 547.816406 L 815.75 547.816406 L 815.75 612.671875 L 704.988281 612.671875 Z M 704.988281 547.816406 " clip-rule="nonzero"/></clipPath><clipPath id="id19"><path d="M 712.066406 586.894531 L 807 586.894531 L 807 642.3125 L 712.066406 642.3125 Z M 712.066406 586.894531 " clip-rule="nonzero"/></clipPath><clipPath id="id20"><path d="M 902.71875 230 L 1046 230 L 1046 373.226562 L 902.71875 373.226562 Z M 902.71875 230 " clip-rule="nonzero"/></clipPath></defs><g clip-path="url(#id1)"><g clip-path="url(#id2)"><g clip-path="url(#id3)"><path fill="#b1dbf5" d="M 426.992188 389.566406 L 464.578125 508.40625 C 476.417969 545.839844 517.636719 570.066406 555.066406 558.226562 L 826.796875 472.28125 C 864.269531 460.429688 884.019531 416.921875 872.179688 379.488281 L 834.589844 260.648438 Z M 498.519531 426.703125 L 566.453125 405.21875 L 570.75 418.800781 L 502.816406 440.285156 Z M 651.570312 438.058594 L 515.703125 481.03125 L 507.113281 453.867188 L 642.980469 410.894531 Z M 651.570312 438.058594 " fill-opacity="1" fill-rule="nonzero"/></g></g></g><g clip-path="url(#id4)"><g clip-path="url(#id5)"><g clip-path="url(#id6)"><path fill="#b1dbf5" d="M 736.585938 187.058594 L 464.855469 273.003906 C 427.410156 284.847656 405.511719 321.652344 418.398438 362.398438 L 826 233.484375 C 813.109375 192.738281 774.058594 175.207031 736.585938 187.058594 Z M 736.585938 187.058594 " fill-opacity="1" fill-rule="nonzero"/></g></g></g><g clip-path="url(#id7)"><path fill="#b1dbf5" d="M 635.832031 507.71875 L 635.832031 632.363281 C 635.832031 671.625 667.824219 707.152344 707.082031 707.152344 L 992.082031 707.152344 C 1031.382812 707.152344 1063.332031 671.625 1063.332031 632.363281 L 1063.332031 507.71875 Z M 692.832031 564.699219 L 764.082031 564.699219 L 764.082031 578.945312 L 692.832031 578.945312 Z M 835.332031 621.679688 L 692.832031 621.679688 L 692.832031 593.191406 L 835.332031 593.191406 Z M 835.332031 621.679688 " fill-opacity="1" fill-rule="nonzero"/></g><g clip-path="url(#id8)"><path fill="#b1dbf5" d="M 992.082031 408.003906 L 707.082031 408.003906 C 667.808594 408.003906 635.832031 436.492188 635.832031 479.230469 L 1063.332031 479.230469 C 1063.332031 436.492188 1031.382812 408.003906 992.082031 408.003906 Z M 992.082031 408.003906 " fill-opacity="1" fill-rule="nonzero"/></g><g clip-path="url(#id9)"><g clip-path="url(#id10)"><path fill="#b1dbf5" d="M 474.460938 422.480469 L 644.652344 368.652344 L 674.054688 461.613281 L 503.863281 515.441406 L 474.460938 422.480469 " fill-opacity="1" fill-rule="nonzero"/></g></g><g clip-path="url(#id11)"><g clip-path="url(#id12)"><g clip-path="url(#id13)"><path fill="#ff5c35" d="M 588.777344 488.503906 C 590.578125 487.933594 592.351562 487.273438 594.089844 486.53125 C 595.828125 485.785156 597.527344 484.957031 599.183594 484.046875 C 600.839844 483.136719 602.449219 482.144531 604.007812 481.078125 C 605.570312 480.007812 607.074219 478.863281 608.523438 477.648438 C 609.96875 476.429688 611.355469 475.144531 612.675781 473.792969 C 613.996094 472.4375 615.25 471.023438 616.429688 469.546875 C 617.613281 468.070312 618.722656 466.542969 619.753906 464.957031 C 620.785156 463.371094 621.738281 461.738281 622.609375 460.0625 C 623.480469 458.382812 624.269531 456.664062 624.972656 454.910156 C 625.675781 453.152344 626.289062 451.367188 626.816406 449.550781 C 627.347656 447.734375 627.78125 445.898438 628.128906 444.039062 C 628.476562 442.179688 628.730469 440.308594 628.894531 438.421875 C 629.058594 436.539062 629.128906 434.652344 629.105469 432.757812 C 629.085938 430.867188 628.96875 428.984375 628.761719 427.101562 C 628.554688 425.222656 628.253906 423.355469 627.863281 421.507812 C 627.472656 419.65625 626.992188 417.828125 626.421875 416.027344 C 625.851562 414.222656 625.195312 412.453125 624.449219 410.710938 C 623.707031 408.972656 622.878906 407.277344 621.96875 405.617188 C 621.054688 403.960938 620.066406 402.351562 618.996094 400.792969 C 617.925781 399.230469 616.785156 397.726562 615.566406 396.28125 C 614.347656 394.832031 613.0625 393.449219 611.710938 392.125 C 610.359375 390.804688 608.945312 389.554688 607.46875 388.371094 C 605.992188 387.1875 604.460938 386.082031 602.875 385.046875 C 601.289062 384.015625 599.660156 383.0625 597.980469 382.191406 C 596.300781 381.320312 594.585938 380.53125 592.828125 379.828125 C 591.074219 379.125 589.289062 378.511719 587.472656 377.984375 C 585.65625 377.457031 583.816406 377.019531 581.957031 376.671875 C 580.097656 376.324219 578.226562 376.070312 576.34375 375.90625 C 574.457031 375.742188 572.570312 375.671875 570.679688 375.695312 C 568.789062 375.71875 566.902344 375.832031 565.023438 376.039062 C 563.140625 376.246094 561.277344 376.546875 559.425781 376.9375 C 557.574219 377.328125 555.75 377.808594 553.945312 378.378906 C 552.140625 378.949219 550.371094 379.605469 548.632812 380.351562 C 546.894531 381.097656 545.195312 381.925781 543.539062 382.835938 C 541.882812 383.746094 540.273438 384.738281 538.710938 385.804688 C 537.152344 386.875 535.648438 388.019531 534.199219 389.234375 C 532.753906 390.453125 531.367188 391.738281 530.046875 393.089844 C 528.726562 394.445312 527.472656 395.859375 526.289062 397.335938 C 525.109375 398.8125 524 400.339844 522.96875 401.925781 C 521.9375 403.511719 520.984375 405.144531 520.113281 406.820312 C 519.238281 408.5 518.453125 410.214844 517.75 411.972656 C 517.046875 413.726562 516.429688 415.515625 515.902344 417.332031 C 515.375 419.148438 514.9375 420.984375 514.589844 422.84375 C 514.246094 424.703125 513.988281 426.574219 513.824219 428.460938 C 513.664062 430.34375 513.59375 432.230469 513.613281 434.121094 C 513.636719 436.015625 513.753906 437.898438 513.960938 439.78125 C 514.167969 441.660156 514.464844 443.523438 514.859375 445.375 C 515.25 447.226562 515.730469 449.054688 516.300781 450.855469 C 516.871094 452.660156 517.527344 454.429688 518.269531 456.167969 C 519.015625 457.90625 519.84375 459.605469 520.753906 461.261719 C 521.667969 462.921875 522.65625 464.53125 523.726562 466.089844 C 524.792969 467.648438 525.9375 469.152344 527.15625 470.601562 C 528.371094 472.050781 529.65625 473.433594 531.011719 474.753906 C 532.363281 476.078125 533.777344 477.328125 535.253906 478.511719 C 536.730469 479.695312 538.261719 480.800781 539.847656 481.832031 C 541.429688 482.867188 543.0625 483.816406 544.742188 484.691406 C 546.417969 485.5625 548.136719 486.347656 549.890625 487.050781 C 551.648438 487.753906 553.433594 488.371094 555.25 488.898438 C 557.066406 489.425781 558.90625 489.863281 560.765625 490.210938 C 562.625 490.558594 564.496094 490.8125 566.378906 490.976562 C 568.261719 491.140625 570.152344 491.210938 572.042969 491.1875 C 573.933594 491.164062 575.820312 491.050781 577.699219 490.84375 C 579.578125 490.632812 581.445312 490.335938 583.296875 489.945312 C 585.144531 489.554688 586.972656 489.074219 588.777344 488.503906 Z M 555.605469 383.625 C 557.234375 383.109375 558.890625 382.671875 560.5625 382.320312 C 562.238281 381.964844 563.925781 381.695312 565.625 381.507812 C 567.328125 381.320312 569.03125 381.214844 570.742188 381.195312 C 572.457031 381.175781 574.164062 381.238281 575.867188 381.386719 C 577.574219 381.535156 579.265625 381.765625 580.949219 382.078125 C 582.628906 382.390625 584.292969 382.789062 585.9375 383.265625 C 587.582031 383.742188 589.195312 384.300781 590.785156 384.9375 C 592.375 385.570312 593.925781 386.285156 595.445312 387.074219 C 596.964844 387.863281 598.441406 388.722656 599.875 389.65625 C 601.308594 390.589844 602.691406 391.59375 604.027344 392.664062 C 605.363281 393.734375 606.644531 394.867188 607.867188 396.0625 C 609.09375 397.257812 610.253906 398.507812 611.355469 399.820312 C 612.457031 401.128906 613.492188 402.488281 614.460938 403.902344 C 615.425781 405.3125 616.324219 406.769531 617.148438 408.269531 C 617.972656 409.769531 618.71875 411.304688 619.394531 412.878906 C 620.066406 414.449219 620.664062 416.054688 621.179688 417.683594 C 621.695312 419.316406 622.128906 420.96875 622.484375 422.644531 C 622.835938 424.316406 623.105469 426.003906 623.296875 427.707031 C 623.484375 429.40625 623.585938 431.113281 623.605469 432.824219 C 623.628906 434.535156 623.5625 436.242188 623.417969 437.949219 C 623.269531 439.652344 623.039062 441.347656 622.722656 443.027344 C 622.410156 444.710938 622.015625 446.375 621.535156 448.015625 C 621.058594 449.660156 620.503906 451.277344 619.867188 452.863281 C 619.230469 454.453125 618.515625 456.007812 617.730469 457.527344 C 616.941406 459.042969 616.078125 460.519531 615.144531 461.953125 C 614.210938 463.390625 613.210938 464.773438 612.140625 466.109375 C 611.070312 467.445312 609.9375 468.722656 608.742188 469.949219 C 607.546875 471.171875 606.292969 472.335938 604.980469 473.4375 C 603.671875 474.539062 602.3125 475.570312 600.898438 476.539062 C 599.488281 477.507812 598.03125 478.402344 596.535156 479.226562 C 595.035156 480.050781 593.496094 480.800781 591.925781 481.472656 C 590.351562 482.148438 588.75 482.742188 587.117188 483.257812 C 585.484375 483.773438 583.832031 484.210938 582.160156 484.5625 C 580.484375 484.917969 578.796875 485.1875 577.097656 485.375 C 575.394531 485.5625 573.6875 485.667969 571.976562 485.6875 C 570.265625 485.707031 568.558594 485.644531 566.855469 485.496094 C 565.148438 485.347656 563.457031 485.117188 561.773438 484.804688 C 560.089844 484.488281 558.429688 484.09375 556.785156 483.617188 C 555.140625 483.140625 553.527344 482.582031 551.9375 481.945312 C 550.347656 481.308594 548.792969 480.597656 547.277344 479.808594 C 545.757812 479.019531 544.28125 478.160156 542.847656 477.226562 C 541.414062 476.292969 540.027344 475.289062 538.691406 474.21875 C 537.355469 473.148438 536.078125 472.015625 534.851562 470.820312 C 533.628906 469.625 532.464844 468.371094 531.363281 467.0625 C 530.265625 465.753906 529.230469 464.390625 528.261719 462.980469 C 527.292969 461.570312 526.398438 460.113281 525.574219 458.613281 C 524.75 457.113281 524 455.578125 523.328125 454.003906 C 522.652344 452.433594 522.058594 450.828125 521.542969 449.199219 C 521.027344 447.566406 520.59375 445.914062 520.238281 444.238281 C 519.886719 442.566406 519.613281 440.875 519.425781 439.175781 C 519.238281 437.476562 519.132812 435.769531 519.113281 434.058594 C 519.09375 432.347656 519.15625 430.640625 519.304688 428.933594 C 519.453125 427.230469 519.683594 425.535156 519.996094 423.851562 C 520.3125 422.171875 520.707031 420.507812 521.183594 418.863281 C 521.664062 417.222656 522.21875 415.605469 522.855469 414.015625 C 523.492188 412.429688 524.203125 410.875 524.992188 409.355469 C 525.78125 407.835938 526.644531 406.363281 527.578125 404.925781 C 528.511719 403.492188 529.511719 402.109375 530.582031 400.773438 C 531.652344 399.4375 532.785156 398.15625 533.980469 396.933594 C 535.175781 395.710938 536.429688 394.546875 537.738281 393.445312 C 539.050781 392.34375 540.410156 391.308594 541.820312 390.34375 C 543.234375 389.375 544.6875 388.480469 546.1875 387.65625 C 547.6875 386.832031 549.222656 386.082031 550.796875 385.40625 C 552.371094 384.734375 553.972656 384.140625 555.605469 383.625 Z M 555.605469 383.625 " fill-opacity="1" fill-rule="nonzero"/></g></g></g><g clip-path="url(#id14)"><g clip-path="url(#id15)"><g clip-path="url(#id16)"><path fill="#ff5c35" d="M 569.859375 474.296875 C 569.972656 474.644531 570.144531 474.957031 570.378906 475.234375 C 570.613281 475.515625 570.890625 475.738281 571.214844 475.90625 C 571.539062 476.074219 571.882812 476.175781 572.246094 476.207031 C 572.609375 476.238281 572.964844 476.199219 573.3125 476.089844 L 594.289062 469.453125 C 594.636719 469.34375 594.949219 469.171875 595.226562 468.9375 C 595.507812 468.703125 595.730469 468.421875 595.898438 468.097656 C 596.066406 467.777344 596.167969 467.433594 596.199219 467.070312 C 596.230469 466.707031 596.191406 466.351562 596.082031 466.003906 L 588.617188 442.40625 L 612.214844 434.941406 C 612.5625 434.832031 612.875 434.660156 613.15625 434.425781 C 613.433594 434.1875 613.65625 433.910156 613.824219 433.585938 C 613.996094 433.261719 614.09375 432.917969 614.125 432.554688 C 614.15625 432.191406 614.117188 431.835938 614.007812 431.488281 L 607.375 410.515625 C 607.261719 410.167969 607.089844 409.851562 606.855469 409.574219 C 606.621094 409.292969 606.34375 409.070312 606.019531 408.902344 C 605.695312 408.734375 605.351562 408.636719 604.988281 408.601562 C 604.625 408.570312 604.269531 408.609375 603.921875 408.722656 L 580.324219 416.183594 L 572.859375 392.585938 C 572.75 392.238281 572.578125 391.925781 572.34375 391.648438 C 572.109375 391.367188 571.828125 391.144531 571.507812 390.976562 C 571.183594 390.808594 570.839844 390.707031 570.476562 390.675781 C 570.113281 390.644531 569.757812 390.683594 569.410156 390.792969 L 548.433594 397.429688 C 548.085938 397.539062 547.773438 397.710938 547.492188 397.945312 C 547.214844 398.179688 546.992188 398.460938 546.824219 398.78125 C 546.652344 399.105469 546.554688 399.449219 546.523438 399.8125 C 546.492188 400.175781 546.53125 400.53125 546.640625 400.878906 L 554.105469 424.476562 L 530.507812 431.941406 C 530.160156 432.050781 529.84375 432.222656 529.566406 432.457031 C 529.289062 432.691406 529.0625 432.972656 528.894531 433.296875 C 528.726562 433.621094 528.628906 433.960938 528.597656 434.324219 C 528.566406 434.6875 528.605469 435.042969 528.714844 435.394531 L 535.347656 456.367188 C 535.457031 456.714844 535.628906 457.03125 535.867188 457.308594 C 536.101562 457.585938 536.378906 457.8125 536.703125 457.980469 C 537.027344 458.148438 537.371094 458.246094 537.734375 458.277344 C 538.097656 458.308594 538.453125 458.269531 538.800781 458.160156 L 562.398438 450.699219 Z M 539.761719 452.085938 L 534.789062 436.355469 L 558.386719 428.890625 C 558.734375 428.78125 559.046875 428.609375 559.324219 428.375 C 559.605469 428.140625 559.828125 427.863281 559.996094 427.539062 C 560.164062 427.214844 560.265625 426.871094 560.296875 426.507812 C 560.328125 426.144531 560.289062 425.789062 560.175781 425.441406 L 552.714844 401.84375 L 568.445312 396.867188 L 575.910156 420.464844 C 576.019531 420.8125 576.191406 421.125 576.425781 421.40625 C 576.660156 421.683594 576.941406 421.910156 577.265625 422.078125 C 577.585938 422.246094 577.929688 422.34375 578.292969 422.375 C 578.65625 422.40625 579.011719 422.367188 579.359375 422.257812 L 602.957031 414.792969 L 607.933594 430.527344 L 584.335938 437.988281 C 583.988281 438.101562 583.675781 438.273438 583.394531 438.507812 C 583.117188 438.742188 582.894531 439.019531 582.726562 439.34375 C 582.558594 439.667969 582.457031 440.011719 582.425781 440.375 C 582.394531 440.738281 582.433594 441.09375 582.542969 441.441406 L 590.007812 465.039062 L 574.277344 470.015625 L 566.8125 446.417969 C 566.703125 446.070312 566.53125 445.753906 566.296875 445.476562 C 566.058594 445.199219 565.78125 444.972656 565.457031 444.804688 C 565.132812 444.636719 564.789062 444.539062 564.425781 444.507812 C 564.0625 444.476562 563.707031 444.515625 563.359375 444.625 Z M 539.761719 452.085938 " fill-opacity="1" fill-rule="nonzero"/></g></g></g><g clip-path="url(#id17)"><path fill="#b1dbf5" d="M 671.167969 553.816406 L 849.667969 553.816406 L 849.667969 651.316406 L 671.167969 651.316406 L 671.167969 553.816406 " fill-opacity="1" fill-rule="nonzero"/></g><g clip-path="url(#id18)"><path fill="#ff5c35" d="M 741.886719 594.585938 C 743.910156 599.574219 745.9375 604.566406 747.960938 609.554688 C 748.878906 604.390625 749.800781 599.226562 750.71875 594.0625 C 751.035156 592.28125 753.359375 592.726562 753.894531 594.0625 C 754.949219 596.703125 756.003906 599.34375 757.058594 601.988281 C 758.726562 592.28125 760.394531 582.574219 762.0625 572.871094 C 762.394531 570.9375 765.171875 571.566406 765.292969 573.308594 C 765.300781 573.390625 765.304688 573.472656 765.3125 573.554688 C 766.21875 586.53125 767.125 599.507812 768.03125 612.488281 C 768.875 605.140625 769.71875 597.792969 770.5625 590.449219 C 770.730469 588.988281 772.820312 588 773.628906 589.621094 C 774.589844 591.539062 775.550781 593.460938 776.515625 595.378906 C 787.425781 595.378906 798.335938 595.378906 809.246094 595.378906 C 809.871094 594.453125 810.425781 593.566406 810.886719 592.730469 C 813.535156 587.925781 815.75 582.710938 815.75 577.101562 C 815.75 560.925781 802.621094 547.816406 786.460938 547.816406 C 775.097656 547.816406 765.246094 554.226562 760.367188 563.703125 C 755.507812 554.226562 745.648438 547.816406 734.304688 547.816406 C 718.105469 547.816406 704.988281 560.925781 704.988281 577.101562 C 704.988281 582.710938 707.203125 587.925781 709.859375 592.730469 C 709.894531 592.796875 709.9375 592.867188 709.976562 592.933594 C 720.085938 593.082031 730.191406 593.230469 740.300781 593.378906 C 741.097656 593.390625 741.605469 593.890625 741.886719 594.585938 " fill-opacity="1" fill-rule="nonzero"/></g><g clip-path="url(#id19)"><path fill="#ff5c35" d="M 774.078125 597.851562 C 773.785156 597.273438 773.496094 596.691406 773.203125 596.105469 C 771.898438 607.511719 770.585938 618.914062 769.277344 630.316406 C 769.039062 632.398438 766.136719 632.464844 765.984375 630.316406 C 765.980469 630.234375 765.976562 630.152344 765.96875 630.070312 C 764.964844 615.710938 763.960938 601.355469 762.960938 586.996094 C 761.734375 594.140625 760.503906 601.28125 759.277344 608.421875 C 758.972656 610.207031 756.632812 609.75 756.101562 608.421875 C 755.042969 605.757812 753.976562 603.09375 752.914062 600.433594 C 751.996094 605.578125 751.082031 610.722656 750.164062 615.867188 C 749.847656 617.65625 747.53125 617.195312 746.992188 615.867188 C 744.390625 609.460938 741.792969 603.054688 739.195312 596.652344 C 730.164062 596.519531 721.132812 596.386719 712.101562 596.25 C 724.109375 613.214844 759.820312 642.492188 760.300781 642.3125 C 760.300781 642.3125 760.3125 642.285156 760.367188 642.285156 C 760.421875 642.285156 760.464844 642.3125 760.464844 642.3125 C 760.914062 642.484375 793.414062 615.84375 806.839844 598.667969 C 796.394531 598.667969 785.945312 598.667969 775.5 598.667969 C 774.949219 598.667969 774.332031 598.363281 774.078125 597.851562 " fill-opacity="1" fill-rule="nonzero"/></g><g clip-path="url(#id20)"><path fill="#ff5c35" d="M 1024.089844 373.226562 L 924.140625 373.226562 C 912.308594 373.242188 902.71875 363.644531 902.71875 351.804688 L 902.71875 251.808594 C 902.71875 239.988281 912.308594 230.390625 924.140625 230.390625 L 990.707031 230.390625 C 991.769531 230.390625 992.632812 231.269531 992.621094 232.347656 C 992.621094 233.410156 991.753906 234.261719 990.707031 234.273438 L 924.140625 234.273438 C 914.449219 234.273438 906.601562 242.128906 906.601562 251.808594 L 906.601562 351.804688 C 906.601562 361.488281 914.449219 369.34375 924.140625 369.355469 L 1024.089844 369.355469 C 1033.765625 369.34375 1041.617188 361.488281 1041.617188 351.804688 L 1041.617188 284.613281 C 1041.671875 283.550781 1042.578125 282.714844 1043.65625 282.769531 C 1044.648438 282.828125 1045.441406 283.621094 1045.484375 284.613281 L 1045.484375 351.804688 C 1045.484375 363.628906 1035.90625 373.226562 1024.089844 373.226562 " fill-opacity="1" fill-rule="nonzero"/></g><path fill="#ff5c35" d="M 967.570312 309.320312 C 962.339844 306.796875 957.804688 303.054688 954.320312 298.40625 C 952.167969 295.5 948.058594 294.917969 945.167969 297.085938 C 945.152344 297.085938 945.140625 297.101562 945.140625 297.101562 C 941.609375 299.78125 937.96875 302.289062 934.214844 304.628906 C 931.15625 306.558594 930.21875 310.597656 932.144531 313.660156 C 932.34375 313.972656 932.558594 314.269531 932.8125 314.539062 C 941.980469 324.84375 950.199219 335.972656 957.351562 347.765625 C 958.542969 349.738281 960.667969 350.925781 962.964844 350.925781 L 977.628906 350.925781 C 980.347656 350.925781 982.800781 349.242188 983.765625 346.703125 C 999.589844 305.011719 1023.027344 266.636719 1052.878906 233.535156 C 1055.035156 231.253906 1057.484375 229.253906 1060.148438 227.582031 C 1062.316406 226.222656 1062.96875 223.359375 1061.609375 221.175781 C 1060.941406 220.125 1059.878906 219.375 1058.648438 219.105469 C 1043.710938 215.886719 1028.238281 221.386719 1018.691406 233.324219 C 1000.328125 256.289062 984.640625 281.265625 971.960938 307.789062 C 971.183594 309.421875 969.226562 310.113281 967.597656 309.335938 C 967.582031 309.335938 967.570312 309.335938 967.570312 309.320312 " fill-opacity="1" fill-rule="nonzero"/><g fill="#ff5c35" fill-opacity="1"><g transform="translate(675.314755, 423.939214)"><g><path d="M 4.636719 -1.332031 L 14.832031 -4.261719 L 9.183594 -23.929688 L 29.183594 -29.671875 L 26.84375 -37.820312 L 6.84375 -32.074219 L 3.761719 -42.800781 L 25.085938 -48.925781 L 22.746094 -57.070312 L -8.777344 -48.015625 Z M 4.636719 -1.332031 "/></g></g></g><g fill="#ff5c35" fill-opacity="1"><g transform="translate(716.43288, 412.127178)"><g><path d="M 10.566406 -3.894531 C 14.078125 -3.902344 17.585938 -4.40625 21.164062 -5.433594 C 27.253906 -7.183594 31.59375 -9.792969 34.316406 -13.296875 C 36.96875 -16.785156 37.683594 -20.789062 36.410156 -25.226562 C 35.363281 -28.867188 33.21875 -31.335938 29.964844 -32.695312 C 26.722656 -33.984375 21.925781 -34.46875 15.585938 -34.082031 C 12.851562 -33.871094 10.691406 -33.894531 9.148438 -34.027344 C 7.605469 -34.15625 6.441406 -34.46875 5.65625 -34.957031 C 4.871094 -35.449219 4.339844 -36.300781 4.035156 -37.359375 C 3.519531 -39.148438 3.851562 -40.746094 5.136719 -42.265625 C 6.355469 -43.761719 8.320312 -44.898438 11.035156 -45.679688 C 15.738281 -47.03125 20.695312 -46.734375 25.894531 -44.859375 L 27.09375 -53.160156 C 24.785156 -54.214844 21.953125 -54.835938 18.621094 -54.957031 C 15.308594 -55.007812 11.976562 -54.625 8.667969 -53.671875 C 4.960938 -52.609375 1.839844 -50.996094 -0.582031 -48.9375 C -3.066406 -46.859375 -4.757812 -44.511719 -5.71875 -41.871094 C -6.664062 -39.160156 -6.667969 -36.4375 -5.867188 -33.65625 C -5.125 -31.070312 -3.96875 -29.039062 -2.347656 -27.640625 C -0.730469 -26.242188 1.476562 -25.300781 4.269531 -24.8125 C 7.0625 -24.324219 10.679688 -24.214844 15.011719 -24.597656 C 18.882812 -24.851562 21.644531 -24.714844 23.332031 -24.335938 C 25.035156 -23.894531 26.105469 -22.910156 26.523438 -21.453125 C 27.019531 -19.734375 26.605469 -18.179688 25.28125 -16.796875 C 23.960938 -15.414062 21.90625 -14.320312 18.992188 -13.484375 C 13.363281 -11.867188 7.894531 -11.945312 2.480469 -13.832031 L 1.277344 -5.527344 C 3.894531 -4.414062 6.988281 -3.871094 10.566406 -3.894531 Z M 10.566406 -3.894531 "/></g></g></g><g fill="#ff5c35" fill-opacity="1"><g transform="translate(762.781728, 398.812509)"><g><path d="M 40.261719 -11.566406 L 50.460938 -14.496094 L 15.59375 -55.015625 L 7.316406 -52.640625 L -0.726562 0.210938 L 9.667969 -2.777344 L 11.136719 -14.382812 L 32.855469 -20.621094 Z M 12.269531 -23.167969 L 14.730469 -42.796875 L 27.234375 -27.464844 Z M 12.269531 -23.167969 "/></g></g></g><g fill="#ff5c35" fill-opacity="1"><g transform="translate(862.523793, 624.723907)"><g><path d="M 37.757812 -48.574219 L 37.757812 -28.9375 L 15.363281 -28.9375 L 15.363281 -48.574219 L 4.824219 -48.574219 L 4.824219 0 L 15.363281 0 L 15.363281 -20.394531 L 37.757812 -20.394531 L 37.757812 0 L 48.296875 0 L 48.296875 -48.574219 Z M 37.757812 -48.574219 "/></g></g></g><g fill="#ff5c35" fill-opacity="1"><g transform="translate(919.01393, 624.723907)"><g><path d="M 11.230469 -0.828125 C 14.605469 0.136719 18.121094 0.621094 21.839844 0.621094 C 28.179688 0.621094 33.070312 -0.6875 36.652344 -3.308594 C 40.167969 -5.925781 41.960938 -9.578125 41.960938 -14.191406 C 41.960938 -17.984375 40.582031 -20.945312 37.824219 -23.148438 C 35.070312 -25.285156 30.589844 -27.078125 24.390625 -28.453125 C 21.703125 -29.007812 19.636719 -29.625 18.1875 -30.175781 C 16.742188 -30.730469 15.707031 -31.347656 15.089844 -32.039062 C 14.46875 -32.726562 14.191406 -33.691406 14.191406 -34.792969 C 14.191406 -36.652344 14.949219 -38.101562 16.605469 -39.203125 C 18.1875 -40.304688 20.394531 -40.855469 23.21875 -40.855469 C 28.109375 -40.855469 32.796875 -39.203125 37.273438 -35.964844 L 40.71875 -43.613281 C 38.789062 -45.265625 36.242188 -46.644531 33.070312 -47.675781 C 29.902344 -48.640625 26.59375 -49.191406 23.148438 -49.191406 C 19.292969 -49.191406 15.847656 -48.503906 12.953125 -47.195312 C 9.992188 -45.886719 7.714844 -44.09375 6.0625 -41.820312 C 4.410156 -39.480469 3.652344 -36.859375 3.652344 -33.96875 C 3.652344 -31.28125 4.203125 -29.007812 5.375 -27.214844 C 6.546875 -25.421875 8.40625 -23.90625 10.953125 -22.667969 C 13.503906 -21.425781 16.949219 -20.324219 21.21875 -19.5 C 25.011719 -18.671875 27.628906 -17.777344 29.144531 -16.949219 C 30.660156 -16.054688 31.417969 -14.8125 31.417969 -13.296875 C 31.417969 -11.507812 30.589844 -10.128906 28.9375 -9.164062 C 27.285156 -8.199219 25.011719 -7.714844 21.980469 -7.714844 C 16.121094 -7.714844 10.886719 -9.300781 6.199219 -12.609375 L 2.757812 -4.960938 C 4.960938 -3.167969 7.785156 -1.792969 11.230469 -0.828125 Z M 11.230469 -0.828125 "/></g></g></g><g fill="#ff5c35" fill-opacity="1"><g transform="translate(967.23732, 624.723907)"><g><path d="M 41.890625 0 L 52.5 0 L 30.175781 -48.574219 L 21.566406 -48.574219 L -0.757812 0 L 10.058594 0 L 14.675781 -10.75 L 37.273438 -10.75 Z M 18.1875 -18.878906 L 25.976562 -37.066406 L 33.761719 -18.878906 Z M 18.1875 -18.878906 "/></g></g></g></svg>